<?xml version="1.0" encoding="UTF-8" standalone="no"?>
<svg
   width="141.85149"
   height="141.85539"
   viewBox="0 0 141.85149 141.85539"
   version="1.1"
   id="svg15"
   sodipodi:docname="18f2e424bdd6eb248bd2673e9b5c851a.svg"
   xmlns:inkscape="http://www.inkscape.org/namespaces/inkscape"
   xmlns:sodipodi="http://sodipodi.sourceforge.net/DTD/sodipodi-0.dtd"
   xmlns="http://www.w3.org/2000/svg"
   xmlns:svg="http://www.w3.org/2000/svg">
  <sodipodi:namedview
     id="namedview17"
     pagecolor="#ffffff"
     bordercolor="#666666"
     borderopacity="1.0"
     inkscape:showpageshadow="2"
     inkscape:pageopacity="0.0"
     inkscape:pagecheckerboard="0"
     inkscape:deskcolor="#d1d1d1" />
  <defs
     id="defs5">
    <clipPath
       id="clip-0">
      <path
         clip-rule="nonzero"
         d="M 0,0 H 141.86328 V 141.86328 H 0 Z m 0,0"
         id="path2" />
    </clipPath>
  </defs>
  <g
     clip-path="url(#clip-0)"
     id="g9"
     transform="translate(-0.00198591,-0.005904)">
    <path
       fill="none"
       stroke-width="0.19925"
       stroke-linecap="butt"
       stroke-linejoin="miter"
       stroke="#7f7f7f"
       stroke-opacity="1"
       stroke-miterlimit="10"
       d="M 0.00161187,3.63546e-4 H 141.73454 M 0.00161187,28.346168 H 141.73454 M 0.00161187,56.691973 H 141.73454 M 0.00161187,85.041686 H 141.73454 M 0.00161187,113.38749 H 141.73454 M 0.00161187,141.72548 H 141.73454 M 0.00161187,3.63546e-4 V 141.7333 M 28.347417,3.63546e-4 V 141.7333 M 56.693222,3.63546e-4 V 141.7333 M 85.039027,3.63546e-4 V 141.7333 M 113.38874,3.63546e-4 V 141.7333 M 141.72282,3.63546e-4 V 141.7333"
       transform="matrix(0.999514,0,0,-0.999514,0.0999514,141.76208)"
       id="path7" />
  </g>
  <path
     fill-rule="nonzero"
     fill="#7f7f7f"
     fill-opacity="1"
     stroke-width="0.398306"
     stroke-linecap="butt"
     stroke-linejoin="miter"
     stroke="#000000"
     stroke-opacity="1"
     stroke-miterlimit="10"
     d="M 28.431606,113.42378 V 85.091755 h 28.332029 v 28.332025 z m 0,0"
     id="path11" />
  <path
     fill-rule="nonzero"
     fill="#7f7f7f"
     fill-opacity="1"
     stroke-width="0.398306"
     stroke-linecap="butt"
     stroke-linejoin="miter"
     stroke="#000000"
     stroke-opacity="1"
     stroke-miterlimit="10"
     d="M 56.763635,113.42378 V 85.091755 h 28.332029 v 28.332025 z m 0,0"
     id="path13" />
</svg>
