<svg xmlns="http://www.w3.org/2000/svg" xmlns:xlink="http://www.w3.org/1999/xlink" width="22.416pt" height="6.918pt" viewBox="0 0 22.416 6.918" version="1.2"> <defs> <g> <symbol overflow="visible"> <path style="stroke:none;" d=""/> </symbol> <symbol overflow="visible"> <path style="stroke:none;" d="M 5.953125 -5.875 C 5.953125 -6.21875 5.96875 -6.328125 6.71875 -6.328125 L 6.953125 -6.328125 L 6.953125 -6.625 C 6.609375 -6.59375 5.890625 -6.59375 5.515625 -6.59375 C 5.15625 -6.59375 4.421875 -6.59375 4.078125 -6.625 L 4.078125 -6.328125 L 4.3125 -6.328125 C 5.0625 -6.328125 5.078125 -6.21875 5.078125 -5.875 L 5.078125 -3.59375 L 2.1875 -3.59375 L 2.1875 -5.875 C 2.1875 -6.21875 2.203125 -6.328125 2.953125 -6.328125 L 3.1875 -6.328125 L 3.1875 -6.625 C 2.84375 -6.59375 2.125 -6.59375 1.75 -6.59375 C 1.390625 -6.59375 0.65625 -6.59375 0.3125 -6.625 L 0.3125 -6.328125 L 0.546875 -6.328125 C 1.296875 -6.328125 1.3125 -6.21875 1.3125 -5.875 L 1.3125 -0.75 C 1.3125 -0.40625 1.296875 -0.296875 0.546875 -0.296875 L 0.3125 -0.296875 L 0.3125 0 C 0.65625 -0.03125 1.375 -0.03125 1.75 -0.03125 C 2.109375 -0.03125 2.84375 -0.03125 3.1875 0 L 3.1875 -0.296875 L 2.953125 -0.296875 C 2.203125 -0.296875 2.1875 -0.40625 2.1875 -0.75 L 2.1875 -3.296875 L 5.078125 -3.296875 L 5.078125 -0.75 C 5.078125 -0.40625 5.0625 -0.296875 4.3125 -0.296875 L 4.078125 -0.296875 L 4.078125 0 C 4.421875 -0.03125 5.140625 -0.03125 5.515625 -0.03125 C 5.875 -0.03125 6.609375 -0.03125 6.953125 0 L 6.953125 -0.296875 L 6.71875 -0.296875 C 5.96875 -0.296875 5.953125 -0.40625 5.953125 -0.75 Z M 5.953125 -5.875 "/> </symbol> <symbol overflow="visible"> <path style="stroke:none;" d="M 1.09375 -2.4375 C 1.140625 -3.890625 1.953125 -4.140625 2.296875 -4.140625 C 3.296875 -4.140625 3.390625 -2.828125 3.390625 -2.4375 Z M 1.078125 -2.234375 L 3.78125 -2.234375 C 4 -2.234375 4.03125 -2.234375 4.03125 -2.4375 C 4.03125 -3.40625 3.5 -4.34375 2.296875 -4.34375 C 1.171875 -4.34375 0.265625 -3.34375 0.265625 -2.140625 C 0.265625 -0.828125 1.296875 0.109375 2.40625 0.109375 C 3.59375 0.109375 4.03125 -0.96875 4.03125 -1.15625 C 4.03125 -1.25 3.953125 -1.265625 3.90625 -1.265625 C 3.8125 -1.265625 3.796875 -1.21875 3.78125 -1.140625 C 3.4375 -0.140625 2.5625 -0.140625 2.46875 -0.140625 C 1.984375 -0.140625 1.59375 -0.421875 1.375 -0.78125 C 1.078125 -1.25 1.078125 -1.890625 1.078125 -2.234375 Z M 1.078125 -2.234375 "/> </symbol> <symbol overflow="visible"> <path style="stroke:none;" d="M 1.71875 -6.734375 L 0.3125 -6.625 L 0.3125 -6.328125 C 1 -6.328125 1.078125 -6.265625 1.078125 -5.78125 L 1.078125 -0.734375 C 1.078125 -0.296875 0.96875 -0.296875 0.3125 -0.296875 L 0.3125 0 C 0.640625 -0.015625 1.15625 -0.03125 1.390625 -0.03125 C 1.640625 -0.03125 2.109375 -0.015625 2.46875 0 L 2.46875 -0.296875 C 1.828125 -0.296875 1.71875 -0.296875 1.71875 -0.734375 Z M 1.71875 -6.734375 "/> </symbol> <symbol overflow="visible"> <path style="stroke:none;" d="M 4.5625 -2.078125 C 4.5625 -3.3125 3.59375 -4.34375 2.421875 -4.34375 C 1.21875 -4.34375 0.265625 -3.296875 0.265625 -2.078125 C 0.265625 -0.828125 1.28125 0.109375 2.421875 0.109375 C 3.59375 0.109375 4.5625 -0.84375 4.5625 -2.078125 Z M 2.421875 -0.140625 C 2.015625 -0.140625 1.578125 -0.34375 1.3125 -0.78125 C 1.078125 -1.21875 1.078125 -1.8125 1.078125 -2.15625 C 1.078125 -2.53125 1.078125 -3.0625 1.3125 -3.484375 C 1.578125 -3.9375 2.03125 -4.140625 2.421875 -4.140625 C 2.84375 -4.140625 3.265625 -3.921875 3.515625 -3.5 C 3.765625 -3.078125 3.765625 -2.515625 3.765625 -2.15625 C 3.765625 -1.8125 3.765625 -1.28125 3.546875 -0.859375 C 3.34375 -0.421875 2.90625 -0.140625 2.421875 -0.140625 Z M 2.421875 -0.140625 "/> </symbol> </g> <clipPath> <path d="M 0 0.046875 L 21.847656 0.046875 L 21.847656 6.789062 L 0 6.789062 Z M 0 0.046875 "/> </clipPath> </defs> <g> <g clip-rule="nonzero"> <g style="fill:rgb(0%,0%,0%);fill-opacity:1;"> <use x="0" y="6.790213"/> <use x="7.282227" y="6.790213"/> <use x="11.59719" y="6.790213"/> <use x="14.294527" y="6.790213"/> <use x="16.991864" y="6.790213"/> </g> </g> </g> </svg>
