<svg width="21.241863" height="6.7332239" viewBox="0 0 21.241863 6.7332237" version="1.1" sodipodi:docname="output.svg" xmlns:inkscape="http://www.inkscape.org/namespaces/inkscape" xmlns:sodipodi="http://sodipodi.sourceforge.net/DTD/sodipodi-0.dtd" xmlns:xlink="http://www.w3.org/1999/xlink" xmlns="http://www.w3.org/2000/svg" xmlns:svg="http://www.w3.org/2000/svg"> <sodipodi:namedview pagecolor="#ffffff" bordercolor="#666666" borderopacity="1.0" inkscape:showpageshadow="2" inkscape:pageopacity="0.0" inkscape:pagecheckerboard="0" inkscape:deskcolor="#d1d1d1" /> <defs > <g > <g > <path d="m 5.953125,-5.875 c 0,-0.34375 0.015625,-0.453125 0.765625,-0.453125 H 6.953125 V -6.625 c -0.34375,0.03125 -1.0625,0.03125 -1.4375,0.03125 -0.359375,0 -1.09375,0 -1.4375,-0.03125 v 0.296875 H 4.3125 c 0.75,0 0.765625,0.109375 0.765625,0.453125 v 2.28125 H 2.1875 V -5.875 c 0,-0.34375 0.015625,-0.453125 0.765625,-0.453125 H 3.1875 V -6.625 C 2.84375,-6.59375 2.125,-6.59375 1.75,-6.59375 c -0.359375,0 -1.09375,0 -1.4375,-0.03125 v 0.296875 h 0.234375 c 0.75,0 0.765625,0.109375 0.765625,0.453125 v 5.125 c 0,0.34375 -0.015625,0.453125 -0.765625,0.453125 H 0.3125 V 0 C 0.65625,-0.03125 1.375,-0.03125 1.75,-0.03125 c 0.359375,0 1.09375,0 1.4375,0.03125 V -0.296875 H 2.953125 C 2.203125,-0.296875 2.1875,-0.40625 2.1875,-0.75 V -3.296875 H 5.078125 V -0.75 c 0,0.34375 -0.015625,0.453125 -0.765625,0.453125 H 4.078125 V 0 c 0.34375,-0.03125 1.0625,-0.03125 1.4375,-0.03125 0.359375,0 1.09375,0 1.4375,0.03125 V -0.296875 H 6.71875 c -0.75,0 -0.765625,-0.109375 -0.765625,-0.453125 z m 0,0" /> </g> <g > <path d="m 1.09375,-2.4375 c 0.046875,-1.453125 0.859375,-1.703125 1.203125,-1.703125 1,0 1.09375,1.3125 1.09375,1.703125 z M 1.078125,-2.234375 H 3.78125 c 0.21875,0 0.25,0 0.25,-0.203125 0,-0.96875 -0.53125,-1.90625 -1.734375,-1.90625 -1.125,0 -2.03125,1 -2.03125,2.203125 0,1.3125 1.03125,2.25 2.140625,2.25 1.1875,0 1.625,-1.078125 1.625,-1.265625 0,-0.09375 -0.078125,-0.109375 -0.125,-0.109375 -0.09375,0 -0.109375,0.046875 -0.125,0.125 -0.34375,1 -1.21875,1 -1.3125,1 -0.484375,0 -0.875,-0.28125 -1.09375,-0.640625 C 1.078125,-1.25 1.078125,-1.890625 1.078125,-2.234375 Z m 0,0" /> </g> <g > <path d="M 1.71875,-6.734375 0.3125,-6.625 v 0.296875 c 0.6875,0 0.765625,0.0625 0.765625,0.546875 v 5.046875 c 0,0.4375 -0.109375,0.4375 -0.765625,0.4375 V 0 c 0.328125,-0.015625 0.84375,-0.03125 1.078125,-0.03125 0.25,0 0.71875,0.015625 1.078125,0.03125 v -0.296875 c -0.640625,0 -0.75,0 -0.75,-0.4375 z m 0,0" /> </g> <g > <path d="m 4.5625,-2.078125 c 0,-1.234375 -0.96875,-2.265625 -2.140625,-2.265625 -1.203125,0 -2.15625,1.046875 -2.15625,2.265625 0,1.25 1.015625,2.1875 2.15625,2.1875 1.171875,0 2.140625,-0.953125 2.140625,-2.1875 z m -2.140625,1.9375 c -0.40625,0 -0.84375,-0.203125 -1.109375,-0.640625 -0.234375,-0.4375 -0.234375,-1.03125 -0.234375,-1.375 0,-0.375 0,-0.90625 0.234375,-1.328125 0.265625,-0.453125 0.71875,-0.65625 1.109375,-0.65625 0.421875,0 0.84375,0.21875 1.09375,0.640625 0.25,0.421875 0.25,0.984375 0.25,1.34375 0,0.34375 0,0.875 -0.21875,1.296875 -0.203125,0.4375 -0.640625,0.71875 -1.125,0.71875 z m 0,0" /> </g> </g> <clipPath > <path clip-rule="nonzero" d="M 0,0.046875 H 21.847656 V 6.789062 H 0 Z m 0,0" /> </clipPath> </defs> <g clip-path="url(#clip-0)" transform="translate(-0.3125,-0.05583811)"> <g fill="#000000" fill-opacity="1" > <use xlink:href="#glyph-0-0" x="0" y="6.7902131" /> <use xlink:href="#glyph-0-1" x="7.282227" y="6.7902131" /> <use xlink:href="#glyph-0-2" x="11.59719" y="6.7902131" /> <use xlink:href="#glyph-0-2" x="14.294527" y="6.7902131" /> <use xlink:href="#glyph-0-3" x="16.991863" y="6.7902131" /> </g> </g> </svg>